<?xml version="1.0" encoding="UTF-8" standalone="no"?>
<svg
   xmlns:dc="http://purl.org/dc/elements/1.1/"
   xmlns:cc="http://creativecommons.org/ns#"
   xmlns:rdf="http://www.w3.org/1999/02/22-rdf-syntax-ns#"
   xmlns:svg="http://www.w3.org/2000/svg"
   xmlns="http://www.w3.org/2000/svg"
   xmlns:sodipodi="http://sodipodi.sourceforge.net/DTD/sodipodi-0.dtd"
   xmlns:inkscape="http://www.inkscape.org/namespaces/inkscape"
   width="64"
   height="64"
   version="1.1"
   id="svg4"
   sodipodi:docname="chrome_single_path_forkawesome_inkscape.svg"
   inkscape:version="0.92.5 (2060ec1f9f, 2020-04-08)">
  <metadata
     id="metadata10">
    <rdf:RDF>
      <cc:Work
         rdf:about="">
        <dc:format>image/svg+xml</dc:format>
        <dc:type
           rdf:resource="http://purl.org/dc/dcmitype/StillImage" />
        <dc:title></dc:title>
      </cc:Work>
    </rdf:RDF>
  </metadata>
  <defs
     id="defs8" />
  <sodipodi:namedview
     pagecolor="#ffffff"
     bordercolor="#666666"
     borderopacity="1"
     objecttolerance="10"
     gridtolerance="10"
     guidetolerance="10"
     inkscape:pageopacity="0"
     inkscape:pageshadow="2"
     inkscape:window-width="1366"
     inkscape:window-height="703"
     id="namedview6"
     showgrid="false"
     inkscape:zoom="6.9532167"
     inkscape:cx="42.042912"
     inkscape:cy="36.187659"
     inkscape:window-x="0"
     inkscape:window-y="0"
     inkscape:window-maximized="1"
     inkscape:current-layer="svg4" />
  <path
     d="M 31.888573,6.6780298e-4 C 37.352125,-0.0350322 42.922805,1.3575578 47.993553,4.2855878 c 5.606389,3.2494 9.855819,7.9271002 12.56974,13.2832502 l -26.496442,-1.3926 c -7.498992,-0.42849 -14.64089,3.78502 -17.104845,10.85514 L 7.1061866,11.891318 C 13.248219,4.2498778 22.461267,0.0363778 31.888573,6.6780298e-4 Z M 5.2135836,14.462278 17.247682,38.136458 c 3.392401,6.67734 10.570009,10.74801 17.997583,9.35541 l -8.213183,16.10416 C 11.712711,61.239318 -1.8613207e-6,47.991778 -1.8613207e-6,31.994738 -1.8613207e-6,25.531648 1.9283106,19.497058 5.2135836,14.462278 Z m 56.6352514,6.03459 c 5.60639,14.4259 0,31.20851 -13.855282,39.20702 -5.60639,3.2494 -11.784132,4.57059 -17.783326,4.24922 L 44.67257,41.707228 c 4.106591,-6.32026 4.035172,-14.56873 -0.857028,-20.28196 z m -29.853134,0.71416 c 5.963485,0 10.784266,4.82053 10.784266,10.78371 0,5.96318 -4.820781,10.78372 -10.784266,10.78372 -5.963485,0 -10.784266,-4.82054 -10.784266,-10.78372 0,-5.96318 4.820781,-10.78371 10.784266,-10.78371 z"
     id="path2"
     inkscape:connector-curvature="0"
     style="stroke-width:1" />
</svg>
