<svg width="1536" height="1536" xmlns="http://www.w3.org/2000/svg">
    <path d="M 31.888573,6.6780298e-4 C 37.352125,-0.0350322 42.922805,1.3575578 47.993553,4.2855878 c 5.606389,3.2494 9.855819,7.9271002 12.56974,13.2832502 l -26.496442,-1.3926 c -7.498992,-0.42849 -14.64089,3.78502 -17.104845,10.85514 L 7.1061866,11.891318 C 13.248219,4.2498778 22.461267,0.0363778 31.888573,6.6780298e-4 Z M 5.2135836,14.462278 17.247682,38.136458 c 3.392401,6.67734 10.570009,10.74801 17.997583,9.35541 l -8.213183,16.10416 C 11.712711,61.239318 -1.8613207e-6,47.991778 -1.8613207e-6,31.994738 -1.8613207e-6,25.531648 1.9283106,19.497058 5.2135836,14.462278 Z m 56.6352514,6.03459 c 5.60639,14.4259 0,31.20851 -13.855282,39.20702 -5.60639,3.2494 -11.784132,4.57059 -17.783326,4.24922 L 44.67257,41.707228 c 4.106591,-6.32026 4.035172,-14.56873 -0.857028,-20.28196 z m -29.853134,0.71416 c 5.963485,0 10.784266,4.82053 10.784266,10.78371 0,5.96318 -4.820781,10.78372 -10.784266,10.78372 -5.963485,0 -10.784266,-4.82054 -10.784266,-10.78372 0,-5.96318 4.820781,-10.78371 10.784266,-10.78371 z"/>
</svg>
